<svg xmlns="http://www.w3.org/2000/svg" viewBox="0 0 64 64" fill="none">
  <!-- Dark background circle -->
  <rect width="64" height="64" rx="12" fill="#0f172a"/>
  <!-- Shield shape -->
  <path d="M32 6 L52 12 L52 34 C52 48 32 58 32 58 C32 58 12 48 12 34 L12 12 Z" fill="#dc2626"/>
  <!-- Inner shield -->
  <path d="M32 12 L46 17 L46 34 C46 44 32 52 32 52 C32 52 18 44 18 34 L18 17 Z" fill="#b91c1c"/>
  <!-- Network center node -->
  <circle cx="32" cy="28" r="4" fill="white"/>
  <!-- Network outer nodes -->
  <circle cx="22" cy="38" r="3" fill="white"/>
  <circle cx="42" cy="38" r="3" fill="white"/>
  <!-- Network lines -->
  <line x1="32" y1="28" x2="22" y2="38" stroke="white" stroke-width="2" stroke-linecap="round"/>
  <line x1="32" y1="28" x2="42" y2="38" stroke="white" stroke-width="2" stroke-linecap="round"/>
  <line x1="22" y1="38" x2="42" y2="38" stroke="white" stroke-width="2" stroke-linecap="round"/>
</svg>
